<?xml version="1.0" encoding="UTF-8" standalone="no"?>
<svg
   viewBox="0 0 512 512"
   version="1.1"
   id="svg4"
   sodipodi:docname="gear-solid.svg"
   inkscape:version="1.2.2 (b0a8486541, 2022-12-01)"
   xmlns:inkscape="http://www.inkscape.org/namespaces/inkscape"
   xmlns:sodipodi="http://sodipodi.sourceforge.net/DTD/sodipodi-0.dtd"
   xmlns="http://www.w3.org/2000/svg"
   xmlns:svg="http://www.w3.org/2000/svg">
  <defs
     id="defs8" />
  <sodipodi:namedview
     id="namedview6"
     pagecolor="#ffffff"
     bordercolor="#000000"
     borderopacity="0.25"
     inkscape:showpageshadow="2"
     inkscape:pageopacity="0.0"
     inkscape:pagecheckerboard="0"
     inkscape:deskcolor="#d1d1d1"
     showgrid="false"
     inkscape:zoom="1.6347656"
     inkscape:cx="256.30585"
     inkscape:cy="256.30585"
     inkscape:window-width="1920"
     inkscape:window-height="1017"
     inkscape:window-x="1912"
     inkscape:window-y="-8"
     inkscape:window-maximized="1"
     inkscape:current-layer="svg4" />
  <!--! Font Awesome Pro 6.4.0 by @fontawesome - https://fontawesome.com License - https://fontawesome.com/license (Commercial License) Copyright 2023 Fonticons, Inc. -->
  <path
     d="M495.9 166.6c3.2 8.7 .5 18.4-6.4 24.6l-43.3 39.4c1.1 8.3 1.7 16.8 1.7 25.4s-.6 17.1-1.7 25.4l43.3 39.4c6.9 6.2 9.6 15.9 6.4 24.6c-4.4 11.9-9.7 23.3-15.8 34.3l-4.7 8.1c-6.6 11-14 21.4-22.1 31.2c-5.9 7.2-15.7 9.6-24.5 6.8l-55.7-17.7c-13.4 10.3-28.2 18.9-44 25.4l-12.5 57.1c-2 9.1-9 16.3-18.2 17.8c-13.8 2.3-28 3.5-42.5 3.5s-28.7-1.2-42.5-3.5c-9.2-1.5-16.2-8.7-18.2-17.8l-12.5-57.1c-15.8-6.5-30.6-15.1-44-25.4L83.1 425.9c-8.8 2.8-18.6 .3-24.5-6.8c-8.1-9.8-15.5-20.2-22.1-31.2l-4.7-8.1c-6.1-11-11.4-22.4-15.8-34.3c-3.2-8.7-.5-18.4 6.4-24.6l43.3-39.4C64.6 273.1 64 264.6 64 256s.6-17.1 1.7-25.4L22.4 191.2c-6.9-6.2-9.6-15.9-6.4-24.6c4.4-11.9 9.7-23.3 15.8-34.3l4.7-8.1c6.6-11 14-21.4 22.1-31.2c5.9-7.2 15.7-9.6 24.5-6.8l55.7 17.7c13.4-10.3 28.2-18.9 44-25.4l12.5-57.1c2-9.1 9-16.3 18.2-17.8C227.3 1.2 241.5 0 256 0s28.7 1.2 42.5 3.5c9.2 1.5 16.2 8.7 18.2 17.8l12.5 57.1c15.8 6.5 30.6 15.1 44 25.4l55.7-17.7c8.8-2.8 18.6-.3 24.5 6.8c8.1 9.8 15.5 20.2 22.1 31.2l4.7 8.1c6.1 11 11.4 22.4 15.8 34.3zM256 336a80 80 0 1 0 0-160 80 80 0 1 0 0 160z"
     id="path2" />
  <path
     style="fill:#ffffff;stroke-width:0.611708"
     d="m 238.56631,511.02097 c -7.38316,-0.52315 -19.94183,-2.02263 -25.04345,-2.99013 -6.97692,-1.32315 -13.19487,-6.10077 -16.1183,-12.38464 -0.94169,-2.02417 -3.81772,-13.90297 -7.74066,-31.97117 -7.1712,-33.02895 -6.65281,-30.89128 -7.4912,-30.89128 -1.32263,0 -17.47471,-8.12212 -24.4703,-12.30496 -3.98594,-2.3833 -9.87348,-6.23548 -13.08341,-8.56041 l -5.83623,-4.22714 -28.86569,9.2572 c -32.154167,10.3118 -33.836152,10.66721 -40.578149,8.57433 -5.257126,-1.63195 -8.212683,-3.92386 -13.396727,-10.38861 -14.036447,-17.5041 -27.398966,-40.07613 -36.017916,-60.84161 -4.447271,-10.71472 -5.328595,-14.59365 -4.508028,-19.84094 1.153986,-7.37941 2.42771,-8.84928 27.430392,-31.65447 20.63277,-18.81936 22.902698,-21.07593 22.81831,-22.68404 -0.05154,-0.98216 -0.444764,-6.8094 -0.87383,-12.94942 -0.623496,-8.92236 -0.629729,-13.405 -0.03105,-22.32736 0.411989,-6.14002 0.89741,-11.87511 1.078713,-12.74463 0.299096,-1.43446 -1.815752,-3.53573 -22.824216,-22.6777 -25.161693,-22.92621 -26.25172,-24.17819 -27.61052,-31.71268 -0.837144,-4.64193 -0.09009,-8.49403 3.292441,-16.97707 8.02184,-20.11796 20.108592,-41.28827 33.962564,-59.48649 8.314247,-10.921366 10.860139,-13.117344 17.417605,-15.023648 5.949735,-1.729637 8.568832,-1.147779 39.873771,8.858297 l 28.89905,9.237081 5.44606,-3.94033 c 7.90795,-5.721564 19.98565,-12.859768 29.25395,-17.289761 4.44529,-2.124726 8.34933,-3.86314 8.67563,-3.86314 0.81273,0 0.49913,1.285205 7.62004,-31.229582 6.87331,-31.384276 7.54018,-33.463104 12.19252,-38.0078292 4.10931,-4.0142599 8.59365,-5.7227952 18.78908,-7.1586567 20.03029,-2.82094123955 43.78939,-3.18152125 63.31183,-0.9608521 16.68143,1.8975054 21.06085,3.2649091 25.87498,8.0790327 4.62936,4.6293653 5.60298,7.6919713 12.48582,39.2751843 l 6.3258,29.027168 11.60652,5.853965 c 12.44947,6.279126 20.00816,10.778346 27.74518,16.515001 l 4.85833,3.60223 28.9567,-9.205447 c 32.2356,-10.247818 33.96473,-10.610457 40.66916,-8.529229 5.219,1.62011 8.21744,3.927774 13.21777,10.172706 14.92999,18.64609 29.64785,43.89462 37.79715,64.8411 4.22145,10.85058 4.00516,18.03667 -0.75812,25.1876 -0.77556,1.16432 -11.69541,11.4924 -24.26633,22.9513 l -22.85622,20.83435 0.35984,2.52174 c 0.1979,1.38696 0.67631,7.13249 1.06313,12.76785 0.66398,9.67335 0.19097,24.47129 -1.06313,33.26009 l -0.35984,2.52174 22.85622,20.83435 c 12.57092,11.4589 23.49077,21.78698 24.26633,22.9513 2.87367,4.31414 3.93668,8.27055 3.64466,13.56514 -0.22872,4.14684 -0.76499,6.10726 -3.51403,12.84588 -8.94815,21.93435 -23.38473,46.51408 -37.36498,63.61768 -4.85174,5.93566 -6.44751,7.32357 -10.66561,9.27628 -3.1152,1.44215 -4.45656,1.69708 -8.86977,1.68575 -5.0118,-0.0129 -6.24412,-0.34902 -34.13277,-9.31067 l -28.93323,-9.29733 -5.54852,3.98412 c -10.33522,7.42121 -24.59213,15.54522 -35.0749,19.98671 l -3.67509,1.55712 -2.63997,12.16295 c -11.46473,52.82066 -11.10805,51.60346 -16.63753,56.77564 -3.86709,3.61721 -6.77753,4.99295 -12.88083,6.08866 -16.82719,3.02093 -39.30855,4.0903 -58.059,2.76168 z m 30.58542,-175.83383 c 29.29868,-4.74806 53.89453,-25.92657 63.19297,-54.41295 2.68761,-8.23367 3.70808,-15.05156 3.70808,-24.77419 0,-16.91912 -4.20621,-30.92479 -13.46353,-44.83038 -19.72859,-29.63466 -57.94352,-42.65029 -91.88722,-31.29591 -50.45809,16.87856 -70.837,76.57553 -41.29128,120.95667 11.80546,17.73319 31.95838,30.81058 52.88498,34.31749 7.00078,1.17319 19.74394,1.19183 26.856,0.0393 z"
     id="path237" />
</svg>
